<svg width="60" height="40" viewBox="0 0 179 30" fill="none" xmlns="http://www.w3.org/2000/svg">
<path d="M0.670044 7.69995H4.61002V10.0699H4.67004C6.07004 8.09995 7.75003 7.23999 9.81003 7.23999C14.15 7.23999 16.74 11.01 16.74 15.6C16.74 20.93 13.29 24.1 9.52002 24.1C7.12002 24.1 5.55004 22.8701 4.67004 21.5601V29.89H0.670044V7.68994V7.69995ZM8.60004 20.28C10.94 20.28 12.6 18.3399 12.6 15.6899C12.6 13.0399 10.92 11.0699 8.60004 11.0699C6.28004 11.0699 4.58002 12.9799 4.58002 15.6899C4.58002 18.3999 6.29004 20.28 8.60004 20.28Z" fill="#BBBBBB"/>
<path d="M17.25 15.6899C17.25 10.7499 20.62 7.23999 25.47 7.23999C30.32 7.23999 33.69 10.7499 33.69 15.6899C33.69 20.6299 30.32 24.11 25.47 24.11C20.62 24.11 17.25 20.6599 17.25 15.6899ZM25.47 20.28C27.87 20.28 29.52 18.3699 29.52 15.6899C29.52 13.0099 27.86 11.0699 25.47 11.0699C23.08 11.0699 21.39 12.9799 21.39 15.6899C21.39 18.3999 23.07 20.28 25.47 20.28Z" fill="#BBBBBB"/>
<path d="M35.17 7.69995H39.11V10.15H39.22C40.02 8.61002 41.53 7.23999 43.7 7.23999C44.18 7.23999 44.67 7.30003 45.24 7.53003V12.01C44.58 11.78 43.78 11.7 43.3 11.7C39.59 11.7 39.16 15.15 39.16 17.46V23.62H35.16V7.69995H35.17Z" fill="#BBBBBB"/>
<path d="M51.3 1.35999H60.6301C65.0001 1.35999 67.42 3.84 67.42 7.12C67.42 9.26 66.25 11.46 63.85 12.17V12.23C66.33 12.77 68.22 14.46 68.22 17.54C68.22 22.19 63.8501 23.62 60.5701 23.62H51.3V1.35999ZM59.29 10.55C61 10.55 62.97 9.98005 62.97 7.93005C62.97 5.88005 60.9701 5.28003 59.3201 5.28003H55.55V10.5601H59.29V10.55ZM59.72 19.71C61.43 19.71 63.6901 19.14 63.6901 16.97C63.6901 14.8 61.4601 14.2 59.7801 14.2H55.5601V19.71H59.73H59.72Z" fill="#BBBBBB"/>
<path d="M69.8201 0.790039H73.8201V23.62H69.8201V0.790039Z" fill="#BBBBBB"/>
<path d="M75.27 19.46C75.27 16.49 77.64 15.29 80.41 14.7C84 13.93 85.15 13.8201 85.15 12.5601C85.15 11.3901 84.15 10.51 82.61 10.51C81.21 10.51 80.01 11.25 79.5 13.05L75.76 11.79C76.76 8.45004 79.67 7.25 82.75 7.25C86.69 7.25 89.17 9.19002 89.17 12.9V18.66C89.17 21.26 89.37 22.37 89.68 23.62H85.71C85.48 22.94 85.4 22.28 85.4 21.54H85.34C84.51 23.11 82.69 24.11 80.6 24.11C77.89 24.11 75.26 22.6 75.26 19.46H75.27ZM81.78 21.03C83.89 21.03 85.18 19.26 85.18 17.63V16.35C84.35 16.69 82.95 17.06 82.07 17.23C80.82 17.54 79.65 18.14 79.65 19.34C79.65 20.54 80.56 21.02 81.79 21.02L81.78 21.03Z" fill="#BBBBBB"/>
<path d="M91.65 1.35999H100.98C105.35 1.35999 107.77 3.84 107.77 7.12C107.77 9.26 106.6 11.46 104.2 12.17V12.23C106.68 12.77 108.57 14.46 108.57 17.54C108.57 22.19 104.2 23.62 100.92 23.62H91.65V1.35999ZM99.64 10.55C101.35 10.55 103.32 9.98005 103.32 7.93005C103.32 5.88005 101.32 5.28003 99.67 5.28003H95.9V10.5601H99.64V10.55ZM100.07 19.71C101.78 19.71 104.04 19.14 104.04 16.97C104.04 14.8 101.81 14.2 100.13 14.2H95.91V19.71H100.08H100.07Z" fill="#BBBBBB"/>
<path d="M110.18 0.790039H114.18V23.62H110.18V0.790039Z" fill="#BBBBBB"/>
<path d="M115.63 19.46C115.63 16.49 118 15.29 120.77 14.7C124.36 13.93 125.51 13.8201 125.51 12.5601C125.51 11.3901 124.51 10.51 122.97 10.51C121.57 10.51 120.37 11.25 119.86 13.05L116.12 11.79C117.12 8.45004 120.03 7.25 123.11 7.25C127.05 7.25 129.53 9.19002 129.53 12.9V18.66C129.53 21.26 129.73 22.37 130.04 23.62H126.07C125.84 22.94 125.76 22.28 125.76 21.54H125.7C124.87 23.11 123.05 24.11 120.96 24.11C118.25 24.11 115.62 22.6 115.62 19.46H115.63ZM122.14 21.03C124.25 21.03 125.54 19.26 125.54 17.63V16.35C124.71 16.69 123.31 17.06 122.43 17.23C121.18 17.54 120.01 18.14 120.01 19.34C120.01 20.54 120.92 21.02 122.15 21.02L122.14 21.03Z" fill="#BBBBBB"/>
<path d="M132.01 1.35999H136.26V19.6801H146.05V23.62H132.01V1.35999Z" fill="#BBBBBB"/>
<path d="M145.94 19.46C145.94 16.49 148.31 15.29 151.08 14.7C154.67 13.93 155.82 13.8201 155.82 12.5601C155.82 11.3901 154.82 10.51 153.28 10.51C151.88 10.51 150.68 11.25 150.17 13.05L146.43 11.79C147.43 8.45004 150.34 7.25 153.42 7.25C157.36 7.25 159.84 9.19002 159.84 12.9V18.66C159.84 21.26 160.04 22.37 160.35 23.62H156.38C156.15 22.94 156.07 22.28 156.07 21.54H156.01C155.18 23.11 153.36 24.11 151.27 24.11C148.56 24.11 145.93 22.6 145.93 19.46H145.94ZM152.45 21.03C154.56 21.03 155.85 19.26 155.85 17.63V16.35C155.02 16.69 153.62 17.06 152.74 17.23C151.49 17.54 150.32 18.14 150.32 19.34C150.32 20.54 151.23 21.02 152.46 21.02L152.45 21.03Z" fill="#BBBBBB"/>
<path d="M166.23 21.51H166.17V23.62H162.23V0.790039H166.23V9.97998C167.51 8.09998 169.28 7.23999 171.37 7.23999C175.71 7.23999 178.3 11.01 178.3 15.63C178.3 20.94 174.85 24.1 171.08 24.1C168.77 24.1 167.11 22.93 166.23 21.5V21.51ZM170.17 20.28C172.51 20.28 174.17 18.3699 174.17 15.6899C174.17 13.0099 172.54 11.0699 170.17 11.0699C167.8 11.0699 166.15 13.0099 166.15 15.6899C166.15 18.3699 167.86 20.28 170.17 20.28Z" fill="#BBBBBB"/>
</svg>


