<svg width="120" height="80" viewBox="0 0 275 40" fill="none" xmlns="http://www.w3.org/2000/svg">
<path d="M0.52002 26.07C0.52002 17.84 7.05002 12.12 15.46 12.12C21.28 12.12 29.98 14.86 29.98 25.22V26.78H4.29999C4.38999 32.74 9.11998 36.85 15.79 36.85C21.09 36.85 25.06 34.25 27.23 30.09L30.4 31.13C27.94 36.76 22.31 39.78 15.69 39.78C6.85 39.78 0.51001 34.25 0.51001 26.07H0.52002ZM25.77 23.47C25.68 17.23 19.81 15.15 15.51 15.15C9.79001 15.15 5.25001 18.84 4.45001 23.47H25.78H25.77ZM21.28 0.440002H26.15L17.54 9.47H14.42L21.28 0.440002Z" fill="#666666"/>
<path d="M33.95 25.83C33.95 17.22 40.38 11.93 48.37 11.93C53.15 11.93 56.88 13.87 59.01 16.66H59.15V1.14999H65.06V30.75C65.06 35.05 65.44 36.9 66.05 38.98H60.19C59.67 37.32 59.48 36.28 59.53 35.06H59.39C56.98 38.32 52.82 39.79 48.42 39.79C39.77 39.79 33.95 33.93 33.95 25.84V25.83ZM49.55 34.44C55.04 34.44 59.29 30.85 59.29 25.79C59.29 20.73 54.94 17.23 49.55 17.23C44.16 17.23 40.09 20.82 40.09 25.84C40.09 30.86 44.06 34.45 49.55 34.45V34.44Z" fill="#666666"/>
<path d="M70.4 25.93C70.4 17.84 76.93 11.93 86 11.93C92.9 11.93 100.8 15.76 100.8 25.69V27.34H76.4C76.83 32.02 80.99 34.76 86.38 34.76C90.73 34.76 94.04 32.82 95.6 29.79L101.09 31.87C98.87 36.5 93.38 39.77 86.38 39.77C77.25 39.77 70.4 34.28 70.4 25.92V25.93ZM94.8 23.33C94.42 18.55 90.07 16.76 85.96 16.76C80.9 16.76 77.54 19.46 76.69 23.33H94.8Z" fill="#666666"/>
<path d="M105.72 12.5H113.81V15.95H113.9C116.08 13.25 119.91 11.74 123.5 11.74C127.33 11.74 131.11 13.35 132.86 16H132.95C136.07 12.74 140 11.74 143.21 11.74C148.84 11.74 154.37 15.57 154.37 22.24V38.98H146.19V25.74C146.19 23.28 145.29 19.31 140.75 19.31C137.39 19.31 134.13 20.54 134.13 25.74V38.98H125.95V25.69C125.95 23.23 125.05 19.31 120.51 19.31C117.15 19.31 113.89 20.54 113.89 25.74V38.98H105.71V12.5H105.72Z" fill="#666666"/>
<path d="M158.3 31.69C158.3 26.49 163.03 24.88 168.37 23.89C173.38 22.99 177.83 22.75 177.83 20.58C177.83 19.16 175.94 18.12 173.01 18.12C170.31 18.12 167.9 19.02 166.91 21.81L159.25 19.35C161.24 13.68 167.15 11.74 173.15 11.74C181.43 11.74 186.11 15.38 186.11 21.34V30.7C186.11 34.96 186.49 36.85 187.1 38.98H178.97C178.5 38.08 178.4 37.14 178.4 36.24H178.26C176.61 38.51 173.01 39.79 169.13 39.79C163.55 39.79 158.3 37.19 158.3 31.7V31.69ZM171.35 33.77C175.37 33.77 177.88 31.64 177.88 29.23V27.53C175.8 28.05 173.77 28.48 171.69 28.9C169.66 29.33 167.24 29.94 167.24 31.6C167.24 33.07 169.04 33.78 171.35 33.78V33.77Z" fill="#666666"/>
<path d="M192.1 12.5H200.19V16.09H200.43C201.99 13.92 205.02 11.74 209.23 11.74C210.22 11.74 211.17 11.83 212.3 12.17V21.06C210.98 20.68 209.42 20.59 208.42 20.59C200.85 20.59 200.29 26.69 200.29 29.72V38.99H192.11V12.51L192.1 12.5Z" fill="#666666"/>
<path d="M213 25.78C213 17.08 220.05 11.74 229.27 11.74C236.13 11.74 241.9 15.05 244.12 20.25L236.46 23.28C235.23 20.3 232.25 19.31 229.23 19.31C224.6 19.31 221.47 22.1 221.47 25.74C221.47 29.81 225.16 32.22 229.56 32.22C232.87 32.22 235.75 31.09 237.22 28.25L244.88 31.28C242.66 36.48 236.84 39.79 229.51 39.79C220.19 39.79 213.01 34.54 213.01 25.79L213 25.78Z" fill="#666666"/>
<path d="M246.19 31.69C246.19 26.49 250.92 24.88 256.26 23.89C261.27 22.99 265.72 22.75 265.72 20.58C265.72 19.16 263.83 18.12 260.9 18.12C258.2 18.12 255.79 19.02 254.8 21.81L247.14 19.35C249.13 13.68 255.04 11.74 261.04 11.74C269.32 11.74 274 15.38 274 21.34V30.7C274 34.96 274.38 36.85 274.99 38.98H266.86C266.39 38.08 266.29 37.14 266.29 36.24H266.15C264.5 38.51 260.9 39.79 257.02 39.79C251.44 39.79 246.19 37.19 246.19 31.7V31.69ZM259.24 33.77C263.26 33.77 265.77 31.64 265.77 29.23V27.53C263.69 28.05 261.66 28.48 259.58 28.9C257.55 29.33 255.13 29.94 255.13 31.6C255.13 33.07 256.93 33.78 259.24 33.78V33.77Z" fill="#666666"/>
</svg>
