<svg width="270" height="41" viewBox="0 0 270 41" fill="none" xmlns="http://www.w3.org/2000/svg">
<path d="M255.37 2.31018V0.870117H260.84V2.31018H258.88V7.74011H257.32V2.31018H255.37Z" fill="#BBBBBB"/>
<path d="M261.34 0.870117H263.29C263.92 2.33012 264.55 3.80013 265.18 5.26013H265.2C265.83 3.80013 266.46 2.33012 267.09 0.870117H269.04V7.74011H267.45V3.76013H267.43L265.74 7.74011H264.65L262.96 3.76013H262.94V7.74011H261.35V0.870117H261.34Z" fill="#BBBBBB"/>
<path d="M66.3 1.60034H85.54L89.9401 6.00037V14.8904L87.9901 16.8403L91.35 20.2003V28.5903L86.5901 33.3503H66.3V1.59033V1.60034ZM82.91 15.2604L84.7701 13.4004V7.86035L82.9601 6.05042H71.4301V15.2604H82.91ZM84.0001 28.9204L86.1801 26.7404V21.6604L84.0001 19.5304H71.4301V28.9204H84.0001Z" fill="#BBBBBB"/>
<path d="M94.97 0.970215H100.1V33.3702H94.97V0.970215Z" fill="#BBBBBB"/>
<path d="M104.19 29.3204V23.9705L108.23 19.9805H119.89V16.6205L118.21 14.9404H111.09L109.41 16.6205V18.0704H104.37V15.4404L109 10.7705H120.3L124.93 15.4404V33.3605H120.26V29.8705L116.63 33.3605H108.24L104.2 29.3204H104.19ZM116.13 29.3204L119.89 25.6904V23.7905H110.68L109.23 25.1904V27.9604L110.59 29.3204H116.13Z" fill="#BBBBBB"/>
<path d="M129.46 1.60034H148.7L153.1 6.00037V14.8904L151.15 16.8403L154.51 20.2003V28.5903L149.75 33.3503H129.47V1.59033L129.46 1.60034ZM146.07 15.2604L147.93 13.4004V7.86035L146.12 6.05042H134.59V15.2604H146.07ZM147.16 28.9204L149.34 26.7404V21.6604L147.16 19.5304H134.59V28.9204H147.16Z" fill="#BBBBBB"/>
<path d="M158.14 0.970215H163.27V33.3702H158.14V0.970215Z" fill="#BBBBBB"/>
<path d="M167.35 29.3204V23.9705L171.39 19.9805H183.05V16.6205L181.37 14.9404H174.25L172.57 16.6205V18.0704H167.53V15.4404L172.16 10.7705H183.46L188.09 15.4404V33.3605H183.42V29.8705L179.79 33.3605H171.39L167.35 29.3204ZM179.28 29.3204L183.04 25.6904V23.7905H173.83L172.38 25.1904V27.9604L173.74 29.3204H179.28Z" fill="#BBBBBB"/>
<path d="M192.62 1.6001H197.88V28.8701H209.01V33.3601H192.61V1.6001H192.62Z" fill="#BBBBBB"/>
<path d="M211.32 29.3204V23.9705L215.36 19.9805H227.02V16.6205L225.34 14.9404H218.22L216.54 16.6205V18.0704H211.5V15.4404L216.13 10.7705H227.43L232.06 15.4404V33.3605H227.39V29.8705L223.76 33.3605H215.37L211.33 29.3204H211.32ZM223.25 29.3204L227.01 25.6904V23.7905H217.8L216.35 25.1904V27.9604L217.71 29.3204H223.25Z" fill="#BBBBBB"/>
<path d="M236.37 28.6902V0.970215H241.5V14.3103L245.18 10.7703H253.3L257.84 15.3103V28.8302L253.3 33.3702H241L236.37 28.6902ZM250.8 28.9602L252.7 27.0603V17.0802L250.8 15.1803H245.99L241.5 19.6703V27.0702L243.4 28.9702H250.8V28.9602Z" fill="#BBBBBB"/>
<path d="M0.590088 15.6301H3.74005V18.8102H3.80005C5.32005 16.2902 7.52007 15.1201 10.0101 15.1201C14.7101 15.1201 17.86 19.1201 17.86 24.3301C17.86 30.0401 14.1701 33.6602 9.82007 33.6602C7.05007 33.6602 4.96005 32.1801 3.80005 30.2201V40.0602H0.580078V15.6301H0.590088ZM9.20007 30.6702C12.2901 30.6702 14.5301 27.9901 14.5301 24.4001C14.5301 20.8101 12.2601 18.1602 9.20007 18.1602C6.14007 18.1602 3.75006 20.7102 3.75006 24.4302C3.75006 28.1202 6.18007 30.6702 9.20007 30.6702Z" fill="#BBBBBB"/>
<path d="M20.4199 24.4299C20.4199 18.9799 24.08 15.1299 29.34 15.1299C34.6 15.1299 38.2 18.9799 38.2 24.4299C38.2 29.8799 34.54 33.6699 29.34 33.6699C24.14 33.6699 20.4199 29.8899 20.4199 24.4299ZM29.34 30.6699C32.59 30.6699 34.83 28.0899 34.83 24.4299C34.83 20.7699 32.59 18.1599 29.34 18.1599C26.09 18.1599 23.7899 20.7399 23.7899 24.4299C23.7899 28.0899 26.03 30.6699 29.34 30.6699Z" fill="#BBBBBB"/>
<path d="M41.95 15.6301H45.0999V18.8102H45.2199C46.0999 16.7302 48.06 15.1201 50.52 15.1201C51.12 15.1201 51.7499 15.2101 52.3799 15.4701V19.0001C51.7199 18.7501 50.7699 18.6201 50.2399 18.6201C46.3599 18.6201 45.1599 22.3702 45.1599 25.4302V33.1201H41.9399V15.6201L41.95 15.6301Z" fill="#BBBBBB"/>
</svg>
