<svg width="24" height="41" viewBox="0 0 24 41" fill="none" xmlns="http://www.w3.org/2000/svg">
<path d="M8.6698 28.0599C8.6698 24.1599 10.9197 22.2599 14.4697 19.5099C17.5697 17.0099 19.9697 14.3599 19.9697 10.7599C19.9697 6.20987 16.3197 3.55986 12.2197 3.55986C8.11973 3.55986 4.1698 6.45986 4.1698 11.5599C4.1698 12.0599 4.21978 12.6098 4.26978 13.1098L1.11975 12.5599C1.01975 12.0099 0.969727 11.5099 0.969727 11.0099C0.969727 4.40987 6.3698 0.359863 12.4198 0.359863C18.4698 0.359863 23.6698 4.10987 23.6698 10.5099C23.6698 15.5099 20.1198 18.8598 16.6698 21.6098C14.0698 23.7098 12.0697 25.2599 12.0697 28.4099C12.0697 29.1099 12.1698 29.9098 12.3698 30.8598H8.96973C8.76973 29.8598 8.6698 28.9099 8.6698 28.0599ZM11.0697 34.9099C12.5697 34.9099 13.8197 36.1599 13.8197 37.6599C13.8197 39.2599 12.6198 40.5099 11.1198 40.5099C9.51975 40.5099 8.3197 39.2099 8.3197 37.6599C8.3197 36.1099 9.5197 34.9099 11.0697 34.9099Z" fill="#666666"/>
</svg>
