<svg width="42" height="42" viewBox="0 0 42 42" fill="none" xmlns="http://www.w3.org/2000/svg">
<path d="M15.8098 32.1499C7.11981 32.1499 0.0498047 25.0799 0.0498047 16.3899C0.0498047 7.69989 7.11981 0.629883 15.8098 0.629883C24.4998 0.629883 31.5697 7.69989 31.5697 16.3899C31.5697 25.0799 24.4998 32.1499 15.8098 32.1499ZM15.8098 3.62988C8.76981 3.62988 3.0498 9.34989 3.0498 16.3899C3.0498 23.4299 8.76981 29.1499 15.8098 29.1499C22.8498 29.1499 28.5697 23.4299 28.5697 16.3899C28.5697 9.34989 22.8498 3.62988 15.8098 3.62988Z" fill="#666666"/>
<path d="M27.7073 25.4915L25.5859 27.6128L39.0493 41.0761L41.1706 38.9548L27.7073 25.4915Z" fill="#666666"/>
</svg>
